<svg width="142" height="173" viewBox="0 0 142 173" fill="none" xmlns="http://www.w3.org/2000/svg">
<path d="M56.3558 0.00281817H28.8258C28.7022 -0.00822457 28.5779 0.0133069 28.4652 0.0652674C28.3525 0.117228 28.2555 0.197803 28.1836 0.298966C28.1118 0.400128 28.0678 0.518346 28.0558 0.64184C28.0439 0.765334 28.0646 0.889794 28.1158 1.00282L34.3658 21.6028C34.5397 22.255 34.6238 22.9279 34.6158 23.6028L34.0458 36.1528C34.0458 36.7128 33.7158 36.8128 33.3558 36.3828L22.7758 23.5628C22.3462 23.0721 21.7778 22.7234 21.1458 22.5628L0.735756 18.7428C0.195756 18.6428 -0.124244 18.9928 0.045756 19.5228L16.5258 72.3728C16.6198 72.6528 16.7961 72.898 17.0315 73.0764C17.267 73.2548 17.5507 73.3581 17.8458 73.3728H35.3158C37.8551 71.1771 41.0988 69.9669 44.4558 69.9628H44.6858L57.1858 1.00282C57.2155 0.88013 57.2162 0.752177 57.1878 0.62917C57.1594 0.506164 57.1025 0.39151 57.0219 0.29436C56.9413 0.197211 56.8391 0.120255 56.7234 0.0696361C56.6077 0.0190169 56.4818 -0.00386454 56.3558 0.00281817Z" fill="#00A19B"/>
<path d="M44.4557 74.0629C42.497 74.0629 40.5822 74.6433 38.9532 75.7309C37.3241 76.8185 36.0539 78.3645 35.303 80.1736C34.5521 81.9826 34.3541 83.9737 34.734 85.8952C35.114 87.8167 36.0548 89.5826 37.4378 90.9697C38.8207 92.3568 40.5837 93.303 42.5041 93.6888C44.4244 94.0745 46.4161 93.8826 48.2274 93.1371C50.0387 92.3916 51.5885 91.1261 52.681 89.5004C53.7736 87.8746 54.3598 85.9616 54.3657 84.0029C54.3697 82.6989 54.1163 81.4071 53.62 80.2013C53.1238 78.9955 52.3944 77.8994 51.4738 76.976C50.5532 76.0526 49.4594 75.32 48.2551 74.8201C47.0508 74.3202 45.7597 74.0629 44.4557 74.0629Z" fill="#FFDA00"/>
<path d="M30.4157 84.0029C30.4151 81.6659 30.9996 79.366 32.1157 77.3129H16.9357C16.9357 77.3129 16.8557 77.7929 16.7757 78.3129L6.61572 153.423C6.53572 153.973 6.47572 154.483 6.46572 154.553C6.45572 154.623 6.59572 155.263 6.71572 155.803L10.0457 170.403C10.1551 170.889 10.3265 171.36 10.5557 171.803C11.1026 172.105 11.7212 172.254 12.3457 172.233H24.2057C24.7121 172.238 25.2167 172.174 25.7057 172.043C25.9757 171.933 26.3757 170.883 26.4757 170.333L39.7457 97.1729C37.0215 96.2089 34.6623 94.4256 32.9919 92.0677C31.3214 89.7097 30.4215 86.8926 30.4157 84.0029Z" fill="#54C8E8"/>
<path d="M141.606 92.4328C141.688 92.2539 141.73 92.0595 141.73 91.8628C141.73 91.6661 141.688 91.4717 141.606 91.2928L137.486 82.0028C137.378 81.7669 137.205 81.567 136.987 81.4269C136.769 81.2868 136.515 81.2125 136.256 81.2128H98.1957C98.0358 81.2142 97.8771 81.2412 97.7257 81.2928L79.0457 88.4328C78.8924 88.4915 78.7298 88.522 78.5657 88.5228H57.7257C56.5292 92.0027 54.0161 94.8749 50.7257 96.5228L95.0357 171.523C95.154 171.726 95.3233 171.894 95.5267 172.012C95.7302 172.129 95.9608 172.192 96.1957 172.193H136.496C136.852 172.19 137.193 172.047 137.444 171.794C137.695 171.541 137.836 171.199 137.836 170.843V124.143C137.835 123.925 137.782 123.71 137.681 123.517C137.58 123.324 137.434 123.158 137.256 123.033L130.256 118.223C129.986 118.041 129.791 117.767 129.709 117.453C129.626 117.138 129.66 116.804 129.806 116.513L141.606 92.4328Z" fill="#00416B"/>
<path d="M50.7058 96.5228C49.2885 97.2344 47.7597 97.6977 46.1858 97.8928L32.7058 172.223H95.3958L50.7058 96.5228Z" fill="#00A7E1"/>
<path d="M136.866 76.6228L131.976 65.5128C131.966 65.4769 131.966 65.4388 131.976 65.4028V8.89281C131.976 8.84272 131.963 8.79351 131.936 8.7511C131.909 8.7087 131.871 8.6749 131.825 8.65377C131.78 8.63264 131.73 8.62509 131.68 8.63201C131.63 8.63894 131.584 8.66005 131.546 8.69281L52.9558 72.8128C54.6822 74.1221 56.0811 75.8142 57.0424 77.756C58.0037 79.6977 58.5013 81.8361 58.4958 84.0028C58.4958 84.1128 58.4958 84.2228 58.4958 84.3428H78.7658H78.8558L97.8558 77.0728H97.9558H136.566C136.625 77.1126 136.699 77.127 136.769 77.113C136.839 77.0989 136.901 77.0575 136.941 76.9978C136.981 76.9381 136.995 76.8651 136.981 76.7948C136.967 76.7245 136.925 76.6626 136.866 76.6228Z" fill="#00A98F"/>
<path d="M130.436 0.00280762H63.9458L50.9458 71.5328C51.6467 71.9034 52.3157 72.3316 52.9458 72.8128L131.946 8.33281V1.51281C131.946 1.11233 131.787 0.728256 131.504 0.445076C131.22 0.161896 130.836 0.00280762 130.436 0.00280762Z" fill="#74E0C1"/>
</svg>
