<svg id="logo" xmlns="http://www.w3.org/2000/svg" viewBox="0 0 446.96 179.75"><defs><style>.cls-1{fill:#00416b;}.cls-2{fill:#00a19b;}.cls-3{fill:#ffda00;}.cls-4{fill:#54c8e8;}.cls-5{fill:#00a7e1;}.cls-6{fill:#00a98f;}.cls-7{fill:#74e0c1;}</style></defs><g id="text"><path class="cls-1" d="M161.57,31.59h7.66V74.76h-7.66Z"/><path class="cls-1" d="M181.31,42.33h6.23l.58,4.39h.21c2.9-2.83,6.2-5.18,10.64-5.18,6.94,0,10,4.7,10,12.89V74.76h-7.6V55.4c0-5.33-1.54-7.34-5-7.34-2.85,0-4.72,1.4-7.39,4V74.76h-7.6Z"/><path class="cls-1" d="M220.72,63.83V48.38H216.1v-5.7l5-.35.9-8.84h6.31v8.84h8.26v6.05h-8.26V63.81c0,3.82,1.48,5.69,4.59,5.69a10.16,10.16,0,0,0,3.38-.74l1.3,5.6A21.08,21.08,0,0,1,231,75.55C223.5,75.55,220.72,70.82,220.72,63.83Z"/><path class="cls-1" d="M242.4,58.57c0-10.53,7.32-17,15-17,8.76,0,13.38,6.34,13.38,15.39a19.79,19.79,0,0,1-.33,3.7H249.82c.63,5.76,4.33,9,9.56,9a13.79,13.79,0,0,0,7.52-2.35L269.49,72a20.17,20.17,0,0,1-11.11,3.51C249.43,75.55,242.4,69.26,242.4,58.57Zm21.76-3.11c0-5-2.22-8-6.66-8-3.77,0-7.1,2.82-7.76,8Z"/><path class="cls-1" d="M279.79,42.33H286l.58,5.79h.21c2.31-4.23,5.74-6.58,9.22-6.58a8.25,8.25,0,0,1,3.67.66l-1.32,6.6a11.22,11.22,0,0,0-3.33-.53c-2.59,0-5.7,1.77-7.66,6.71V74.76h-7.6Z"/><path class="cls-1" d="M303,71l3.54-4.83c2.87,2.25,5.66,3.62,8.95,3.62,3.53,0,5.2-1.66,5.2-3.88,0-2.72-3.51-3.94-7-5.26-4.25-1.59-9.11-4-9.11-9.45,0-5.62,4.54-9.69,11.8-9.69a17.49,17.49,0,0,1,10.77,3.88l-3.48,4.68c-2.27-1.67-4.56-2.83-7.1-2.83-3.27,0-4.81,1.56-4.81,3.59,0,2.56,3.27,3.54,6.79,4.83,4.38,1.64,9.29,3.75,9.29,9.8,0,5.57-4.41,10.06-12.59,10.06A20.24,20.24,0,0,1,303,71Z"/><path class="cls-1" d="M336.24,63.83V48.38h-4.62v-5.7l5-.35.9-8.84h6.31v8.84h8.27v6.05h-8.27V63.81c0,3.82,1.48,5.69,4.6,5.69a10.15,10.15,0,0,0,3.37-.74l1.3,5.6a21.08,21.08,0,0,1-6.63,1.19C339,75.55,336.24,70.82,336.24,63.83Z"/><path class="cls-1" d="M359,66c0-6.94,5.75-10.56,19.06-12-.11-3.49-1.51-6.39-5.89-6.39-3.22,0-6.26,1.45-9.11,3.19l-2.8-5.07a25.33,25.33,0,0,1,13.31-4.25c8.11,0,12.09,5,12.09,14v19.2h-6.23l-.58-3.59h-.21c-2.9,2.48-6.23,4.38-10.06,4.38C362.94,75.55,359,71.69,359,66Zm19.06,0V58.78c-8.79,1.11-11.72,3.41-11.72,6.68,0,2.87,1.95,4.12,4.67,4.12S375.7,68.29,378.1,66.07Z"/><path class="cls-1" d="M397.1,63.83V48.38h-4.63v-5.7l5-.35.9-8.84h6.31v8.84H413v6.05H404.7V63.81c0,3.82,1.48,5.69,4.59,5.69a10.16,10.16,0,0,0,3.38-.74l1.3,5.6a21.08,21.08,0,0,1-6.63,1.19C399.87,75.55,397.1,70.82,397.1,63.83Z"/><path class="cls-1" d="M418.31,58.57c0-10.53,7.31-17,14.94-17,8.77,0,13.39,6.34,13.39,15.39a19.79,19.79,0,0,1-.33,3.7H425.73c.63,5.76,4.33,9,9.56,9a13.79,13.79,0,0,0,7.52-2.35L445.4,72a20.18,20.18,0,0,1-11.12,3.51C425.33,75.55,418.31,69.26,418.31,58.57Zm21.76-3.11c0-5-2.22-8-6.66-8-3.77,0-7.1,2.82-7.76,8Z"/><path class="cls-1" d="M163.46,153.61h5.34c3.63,0,6.08,1.29,6.08,4.54,0,4.37-3.59,6.68-7.93,6.68h-3.43l-1.64,8.26h-2.31Zm3.38,9.35c3.71,0,5.75-1.73,5.75-4.51,0-2.14-1.5-3-4.37-3h-2.84L163.92,163Zm-.1,1.41,1.77-1.36,4.06,10.08H170.1Z"/><path class="cls-1" d="M184.49,158.3c3.25,0,4.48,2.26,4.48,5.23a8.62,8.62,0,0,1-.53,2.81h-9.37c-.52,3.72,1.41,5.3,3.91,5.3a5.87,5.87,0,0,0,3.25-1.25l.87,1.51a8,8,0,0,1-4.65,1.54c-3.4,0-5.65-2.17-5.65-6C176.8,162,180.74,158.3,184.49,158.3Zm2.38,6.5a7.46,7.46,0,0,0,.15-1.47c0-1.65-.71-3.21-2.78-3.21s-4.2,1.85-4.92,4.68Z"/><path class="cls-1" d="M193.81,174.44l-.9,4.73h-2.27l4.11-20.51h1.87l-.18,1.9h.09a8.2,8.2,0,0,1,5-2.26c2.53,0,4.15,1.87,4.15,5.24,0,5.53-3.8,9.9-7.78,9.9a4,4,0,0,1-3.47-2.09h-.06Zm2.43-11.85-1.39,6.88a3.33,3.33,0,0,0,2.93,2.06c2.89,0,5.54-3.66,5.54-7.66,0-2.46-1-3.66-2.64-3.66A6.62,6.62,0,0,0,196.24,162.59Z"/><path class="cls-1" d="M209.11,171.57a6.38,6.38,0,0,1,.16-1.23l3.68-18.4h2.27l-3.7,18.5a3.05,3.05,0,0,0-.05.58c0,.36.18.54.48.54a1.12,1.12,0,0,0,.49-.1v1.74a3.87,3.87,0,0,1-1.42.24A1.7,1.7,0,0,1,209.11,171.57Z"/><path class="cls-1" d="M217.31,168.21c0-5.53,3.8-9.91,7.78-9.91a3.9,3.9,0,0,1,3.5,2.18h.1l.58-1.82h1.85l-2.9,14.43h-1.87l.23-2.14h-.1a7.29,7.29,0,0,1-5,2.49C218.93,173.44,217.31,171.6,217.31,168.21Zm9.51.58,1.32-6.44c-.84-1.52-1.86-2.14-2.95-2.14-2.89,0-5.54,3.67-5.54,7.67,0,2.48,1,3.65,2.64,3.65S225.41,170.65,226.82,168.79Z"/><path class="cls-1" d="M234.17,167.64c0-5.36,3.84-9.34,8-9.34a4.72,4.72,0,0,1,3.74,1.77l-1.34,1.4a3.05,3.05,0,0,0-2.55-1.28c-2.88,0-5.57,3.36-5.57,7.32,0,2.61,1.12,4.05,3.41,4.05a5.25,5.25,0,0,0,3.18-1.28l1,1.48a7.45,7.45,0,0,1-4.63,1.68C236.33,173.44,234.17,171.34,234.17,167.64Z"/><path class="cls-1" d="M255.31,158.3c3.25,0,4.48,2.26,4.48,5.23a8.62,8.62,0,0,1-.53,2.81h-9.37c-.52,3.72,1.41,5.3,3.91,5.3a5.87,5.87,0,0,0,3.25-1.25l.87,1.51a8.05,8.05,0,0,1-4.66,1.54c-3.39,0-5.64-2.17-5.64-6C247.62,162,251.56,158.3,255.31,158.3Zm2.38,6.5a7.46,7.46,0,0,0,.15-1.47c0-1.65-.71-3.21-2.79-3.21s-4.19,1.85-4.91,4.68Z"/><path class="cls-1" d="M265.55,158.66h1.87l-.23,2.16h.12c1.52-1.41,3.25-2.52,4.75-2.52a3,3,0,0,1,3.33,2.83c1.84-1.76,3.62-2.83,5.11-2.83,2.4,0,3.39,1.38,3.39,3.6a9.08,9.08,0,0,1-.23,2l-1.84,9.2h-2.28l1.8-8.91a8.48,8.48,0,0,0,.24-1.68c0-1.47-.67-2.22-2.11-2.22-.82,0-2.34.79-4.05,2.6l-2.05,10.21H271.1l1.79-8.91a7.8,7.8,0,0,0,.24-1.68c0-1.47-.66-2.22-2.09-2.22-.84,0-2.36.79-4.06,2.6l-2,10.21h-2.27Z"/><path class="cls-1" d="M295.26,158.3c3.25,0,4.48,2.26,4.48,5.23a8.62,8.62,0,0,1-.53,2.81h-9.37c-.52,3.72,1.41,5.3,3.92,5.3a5.87,5.87,0,0,0,3.24-1.25l.87,1.51a8,8,0,0,1-4.65,1.54c-3.4,0-5.65-2.17-5.65-6C287.57,162,291.51,158.3,295.26,158.3Zm2.38,6.5a7.46,7.46,0,0,0,.15-1.47c0-1.65-.71-3.21-2.78-3.21s-4.19,1.85-4.92,4.68Z"/><path class="cls-1" d="M305.5,158.66h1.87l-.23,2.16h.12c1.63-1.41,3.25-2.52,5-2.52,2.43,0,3.43,1.38,3.43,3.6a8.55,8.55,0,0,1-.24,2l-1.84,9.2h-2.27l1.79-8.91a7.8,7.8,0,0,0,.24-1.68c0-1.47-.66-2.22-2.15-2.22-1.13,0-2.51.79-4.33,2.6l-2,10.21h-2.27Z"/><path class="cls-1" d="M320.32,170.22a10.19,10.19,0,0,1,.16-1.58l1.69-8.14h-2.12l.34-1.7,2.25-.14,1.08-4h1.91l-.79,4h3.66l-.38,1.84h-3.7l-1.69,8.24a6.26,6.26,0,0,0-.09,1.07c0,1.19.47,1.79,1.83,1.79a3.35,3.35,0,0,0,1.52-.45l.5,1.64a6.48,6.48,0,0,1-2.73.65C321.25,173.44,320.32,172,320.32,170.22Z"/><path class="cls-1" d="M340.51,153.61H346c3.66,0,6.11,1.38,6.11,4.76,0,4.77-3.55,6.89-8.52,6.89h-3.12l-1.54,7.83h-2.31Zm3.18,9.78c4,0,6.13-1.61,6.13-4.72,0-2.26-1.54-3.2-4.4-3.2h-3l-1.55,7.92Z"/><path class="cls-1" d="M356.67,158.66h1.87l-.35,2.76h.12c1.17-1.75,2.7-3.12,4.48-3.12a3.25,3.25,0,0,1,1.37.26l-.79,2a2.72,2.72,0,0,0-1.24-.23c-1.44,0-3,1.26-4.27,3.63l-1.79,9.1H353.8Z"/><path class="cls-1" d="M364.87,167.64c0-5.45,3.84-9.34,7.79-9.34,3.11,0,5.14,2.2,5.14,5.8,0,5.46-3.84,9.34-7.79,9.34C366.9,173.44,364.87,171.25,364.87,167.64Zm10.64-3.4c0-2.61-1.1-4.05-3.09-4.05-2.66,0-5.26,3.29-5.26,7.32,0,2.61,1.1,4.05,3.09,4.05C372.91,171.56,375.51,168.27,375.51,164.24Z"/><path class="cls-1" d="M379.92,177.74l1.08-1.57a6.2,6.2,0,0,0,4.06,1.71c2.47,0,3.93-1.66,4.55-4.3l.73-3.07a7.14,7.14,0,0,1-5,2.43c-2.46,0-4.19-1.73-4.19-5.09,0-5.28,3.74-9.55,7.61-9.55a3.89,3.89,0,0,1,3.47,2.18h.1l.58-1.82h1.87l-3,15.11c-.79,3.82-3.14,6-6.76,6A8,8,0,0,1,379.92,177.74Zm10.6-9.23,1.26-6.16c-.86-1.52-1.83-2.14-2.93-2.14-2.77,0-5.36,3.56-5.36,7.31,0,2.36,1,3.52,2.58,3.52A6.23,6.23,0,0,0,390.52,168.51Z"/><path class="cls-1" d="M400.51,158.66h1.87l-.35,2.76h.12c1.17-1.75,2.7-3.12,4.48-3.12a3.25,3.25,0,0,1,1.37.26l-.79,2a2.72,2.72,0,0,0-1.24-.23c-1.44,0-3,1.26-4.27,3.63l-1.79,9.1h-2.27Z"/><path class="cls-1" d="M408.73,168.21c0-5.53,3.8-9.91,7.78-9.91a3.91,3.91,0,0,1,3.5,2.18h.1l.57-1.82h1.85l-2.89,14.43h-1.87L418,171h-.09a7.31,7.31,0,0,1-5,2.49C410.35,173.44,408.73,171.6,408.73,168.21Zm9.5.58,1.33-6.44c-.85-1.52-1.86-2.14-3-2.14-2.88,0-5.53,3.67-5.53,7.67,0,2.48,1,3.65,2.64,3.65S416.82,170.65,418.23,168.79Z"/><path class="cls-1" d="M428.26,158.66h1.87l-.22,2.16H430c1.52-1.41,3.26-2.52,4.75-2.52a3,3,0,0,1,3.33,2.83c1.85-1.76,3.62-2.83,5.12-2.83,2.39,0,3.39,1.38,3.39,3.6a8.55,8.55,0,0,1-.24,2l-1.84,9.2h-2.27l1.79-8.91a7.8,7.8,0,0,0,.24-1.68c0-1.47-.66-2.22-2.11-2.22-.82,0-2.34.79-4.05,2.6l-2.05,10.21h-2.27l1.8-8.91a8.48,8.48,0,0,0,.24-1.68c0-1.47-.67-2.22-2.09-2.22-.84,0-2.36.79-4.07,2.6l-2,10.21h-2.27Z"/><path class="cls-1" d="M160.42,87h20.34c11.83,0,21.39,3,21.39,14.08,0,4.87-2.78,10.43-7.13,12.17v.35c5.39,1.57,9.74,5.74,9.74,13.22,0,11.65-10.09,16.69-22.26,16.69H160.42Zm20,22.08c4.87,0,7.13-2.26,7.13-5.74s-2.26-4.87-7.13-4.87h-5v10.61Zm1.05,23c5.91,0,8.69-2.08,8.69-6.26s-2.78-5.74-8.69-5.74h-6.09v12Z"/><path class="cls-1" d="M213.71,87H235.1c12.17,0,22.6,4.17,22.6,18.25,0,13.65-10.43,19.31-22.6,19.31h-6.43v18.95h-15Zm20.35,25.73c5.91,0,9-2.61,9-7.48s-3.13-6.43-9-6.43h-5.39v13.91Zm-1.66,7.91,10.09-9.91,18.34,32.78H244.14Z"/><path class="cls-1" d="M268.57,87h15v56.51h-15Z"/><path class="cls-1" d="M296.13,87h16.69c17.22,0,29,8,29,28S330,143.54,313.69,143.54H296.13ZM312,131.54c8.18,0,14.61-3.3,14.61-16.52S320.13,99,312,99h-.86v32.52Z"/><path class="cls-1" d="M349.6,115.72c0-19,13-29.74,28.17-29.74a25.48,25.48,0,0,1,18.43,7.48L388.38,103c-2.78-2.43-5.57-4.17-10.09-4.17-7.65,0-13.39,6.09-13.39,16.35,0,10.6,4.7,16.52,14.78,16.52a8.42,8.42,0,0,0,4.35-1.05v-7.82h-8.35V110.67h21.57v27c-4,3.82-11.13,7-19.13,7C362.29,144.58,349.6,135,349.6,115.72Z"/><path class="cls-1" d="M408.29,87H444.8V99.55H423.24v8.86h18.43v12.52H423.24V131h22.43v12.52H408.29Z"/></g><g id="icon"><path class="cls-2" d="M56.31,0H28.78a.71.71,0,0,0-.71,1L34.32,21.6a7.42,7.42,0,0,1,.25,2L34,36.15c0,.56-.33.66-.69.23L22.73,23.56a3.22,3.22,0,0,0-1.63-1L.69,18.74c-.54-.1-.86.25-.69.78L16.48,72.37a1.47,1.47,0,0,0,1.32,1H35.27a14,14,0,0,1,9.14-3.41h.23L57.14,1A.81.81,0,0,0,56.31,0Z"/><path class="cls-3" d="M44.41,74.06A9.91,9.91,0,1,0,54.32,84,9.91,9.91,0,0,0,44.41,74.06Z"/><path class="cls-4" d="M30.37,84a14,14,0,0,1,1.7-6.69H16.89s-.08.48-.16,1L6.57,153.42c-.08.55-.14,1.06-.15,1.13s.13.71.25,1.25L10,170.4a5.83,5.83,0,0,0,.51,1.4,3.46,3.46,0,0,0,1.79.43H24.16a5.54,5.54,0,0,0,1.5-.19c.27-.11.67-1.16.77-1.71L39.7,97.17A14,14,0,0,1,30.37,84Z"/><path class="cls-1" d="M141.56,92.43a1.37,1.37,0,0,0,0-1.14L137.44,82a1.35,1.35,0,0,0-1.23-.79H98.15a1.5,1.5,0,0,0-.47.08L79,88.43a1.36,1.36,0,0,1-.48.09H57.68a14.06,14.06,0,0,1-7,8l44.31,75a1.35,1.35,0,0,0,1.16.67h40.3a1.35,1.35,0,0,0,1.34-1.35v-46.7a1.36,1.36,0,0,0-.58-1.11l-7-4.81a1.34,1.34,0,0,1-.45-1.71Z"/><path class="cls-5" d="M50.66,96.52a13.88,13.88,0,0,1-4.52,1.37L32.66,172.22H95.35a0,0,0,0,0,0,0Z"/><path class="cls-6" d="M136.82,76.62l-4.89-11.11a.2.2,0,0,1,0-.11V8.89a.26.26,0,0,0-.43-.2L52.91,72.81A14,14,0,0,1,58.45,84c0,.11,0,.22,0,.34H78.72l.09,0,19-7.27.1,0h38.61A.27.27,0,0,0,136.82,76.62Z"/><path class="cls-7" d="M130.39,0H63.9l-13,71.53a14.34,14.34,0,0,1,2,1.28l79-64.48V1.51A1.51,1.51,0,0,0,130.39,0Z"/></g></svg>